<svg width="320" height="320" viewBox="0 0 320 320" fill="none" xmlns="http://www.w3.org/2000/svg">
  <defs>
    <radialGradient id="ballFill" cx="0" cy="0" r="1" gradientUnits="userSpaceOnUse" gradientTransform="translate(118 100) rotate(47.9) scale(180 180)">
      <stop offset="0" stop-color="#FBFF95"/>
      <stop offset="0.46" stop-color="#D7F244"/>
      <stop offset="1" stop-color="#9ECF21"/>
    </radialGradient>
    <radialGradient id="highlight" cx="0" cy="0" r="1" gradientUnits="userSpaceOnUse" gradientTransform="translate(112 86) rotate(47.9) scale(88 88)">
      <stop offset="0" stop-color="white" stop-opacity="0.58"/>
      <stop offset="1" stop-color="white" stop-opacity="0"/>
    </radialGradient>
    <filter id="shadow" x="6" y="10" width="308" height="302" filterUnits="userSpaceOnUse" color-interpolation-filters="sRGB">
      <feDropShadow dx="0" dy="14" stdDeviation="14" flood-color="#04111D" flood-opacity="0.22"/>
    </filter>
    <filter id="soften" x="28" y="28" width="264" height="264" filterUnits="userSpaceOnUse" color-interpolation-filters="sRGB">
      <feGaussianBlur stdDeviation="0.35"/>
    </filter>
  </defs>

  <g filter="url(#shadow)">
    <circle cx="160" cy="150" r="126" fill="url(#ballFill)"/>
    <circle cx="160" cy="150" r="126" fill="url(#highlight)"/>
    <ellipse cx="188" cy="236" rx="86" ry="54" fill="#84BB16" fill-opacity="0.22"/>
    <g filter="url(#soften)">
      <path d="M90 57C56 86 47 127 49 177C51 223 74 257 111 281" stroke="white" stroke-width="16" stroke-linecap="round"/>
      <path d="M219 31C254 58 272 91 275 131C279 182 258 226 219 267" stroke="white" stroke-width="16" stroke-linecap="round"/>
    </g>
    <path d="M90 57C56 86 47 127 49 177C51 223 74 257 111 281" stroke="white" stroke-width="13" stroke-linecap="round"/>
    <path d="M219 31C254 58 272 91 275 131C279 182 258 226 219 267" stroke="white" stroke-width="13" stroke-linecap="round"/>
  </g>
</svg>
