<svg xmlns="http://www.w3.org/2000/svg" viewBox="0 0 512 512" role="img" aria-labelledby="title desc">
  <title id="title">Roger Federer-inspired avatar</title>
  <desc id="desc">A stylized SVG avatar of a tennis player inspired by Roger Federer, shown from the shoulders up on a clean circular background.</desc>
  <defs>
    <linearGradient id="bg" x1="0%" x2="100%" y1="0%" y2="100%">
      <stop offset="0%" stop-color="#eaf6ff"/>
      <stop offset="100%" stop-color="#d7efe2"/>
    </linearGradient>
    <linearGradient id="shirt" x1="0%" x2="0%" y1="0%" y2="100%">
      <stop offset="0%" stop-color="#21395a"/>
      <stop offset="100%" stop-color="#13253d"/>
    </linearGradient>
    <filter id="shadow" x="-20%" y="-20%" width="140%" height="140%">
      <feDropShadow dx="0" dy="10" stdDeviation="14" flood-color="#20405c" flood-opacity="0.14"/>
    </filter>
  </defs>

  <rect width="512" height="512" rx="64" fill="url(#bg)"/>

  <g filter="url(#shadow)">
    <circle cx="256" cy="256" r="188" fill="#f9fcff"/>
    <path d="M112 320c30-75 83-116 144-116 62 0 114 41 144 116v66H112z" fill="url(#shirt)"/>
    <path d="M207 347c18 15 35 22 49 22 15 0 32-7 49-22v-40h-98z" fill="#f2c8aa"/>
    <path d="M256 122c-59 0-96 42-96 103 0 69 42 115 96 115s96-46 96-115c0-61-37-103-96-103z" fill="#f4cfb6"/>
    <path d="M173 220c-8-10-23-12-34-3-10 8-12 24-3 34 8 10 24 12 34 4" fill="#f1c8aa"/>
    <path d="M339 220c8-10 23-12 34-3 10 8 12 24 3 34-8 10-24 12-34 4" fill="#f1c8aa"/>
    <path d="M186 160c10-35 41-64 77-64 33 0 68 17 88 49 8 13 13 29 15 45-14-11-36-18-59-17-31 1-62 12-83 3-15-6-26-12-38-16z" fill="#6a4a2f"/>
    <path d="M181 168c12-48 51-72 98-72 27 0 58 8 79 32 14 16 22 36 20 67-15-18-39-29-72-29-30 0-48 12-73 11-23-1-43-10-52-9z" fill="#7a5435"/>
    <path d="M214 222c8 0 14 6 14 13 0 8-6 14-14 14s-14-6-14-14c0-7 6-13 14-13z" fill="#2f2d2f"/>
    <path d="M298 222c8 0 14 6 14 13 0 8-6 14-14 14s-14-6-14-14c0-7 6-13 14-13z" fill="#2f2d2f"/>
    <path d="M197 205c13-12 31-18 51-15" fill="none" stroke="#6d4f36" stroke-linecap="round" stroke-width="8"/>
    <path d="M264 190c20-3 38 3 51 15" fill="none" stroke="#6d4f36" stroke-linecap="round" stroke-width="8"/>
    <path d="M256 239c-4 13-8 26-13 39 8 3 17 4 27 1" fill="none" stroke="#d59e7e" stroke-linecap="round" stroke-linejoin="round" stroke-width="6"/>
    <path d="M219 286c21 18 53 18 74 0" fill="none" stroke="#b06263" stroke-linecap="round" stroke-width="8"/>
    <path d="M184 332c19 34 52 55 72 61l-24 51h-94c5-48 20-87 46-112z" fill="#18314e"/>
    <path d="M328 332c26 25 41 64 46 112h-94l-24-51c20-6 53-27 72-61z" fill="#18314e"/>
    <path d="M224 355c10 11 21 16 32 16 12 0 23-5 32-16l22 38c-13 12-32 20-54 20s-41-8-54-20z" fill="#ffffff"/>
    <path d="M180 444h152" fill="none" stroke="#9ec8a9" stroke-linecap="round" stroke-width="8"/>
  </g>
</svg>
